HIERARCHY
ROOT hip
{
  OFFSET 0.325607 79.8457 158.113
  CHANNELS 6 Xposition Yposition Zposition Zrotation Xrotation Yrotation
  JOINT abdomen
  {
    OFFSET 0 20.6881 -0.73152
    CHANNELS 3 Zrotation Xrotation Yrotation
    JOINT chest
    {
      OFFSET 0 11.7043 -0.48768
      CHANNELS 3 Zrotation Xrotation Yrotation
      JOINT neck
      {
        OFFSET 0 22.1894 -2.19456
        CHANNELS 3 Zrotation Xrotation Yrotation
        JOINT head
        {
          OFFSET -0.24384 7.07133 1.2192
          CHANNELS 3 Zrotation Xrotation Yrotation
          JOINT leftEye
          {
            OFFSET 4.14528 8.04674 8.04672
            CHANNELS 3 Zrotation Xrotation Yrotation
            End Site
            {
              OFFSET 1 0 0
            }
          }
          JOINT rightEye
          {
            OFFSET -3.6576 8.04674 8.04672
            CHANNELS 3 Zrotation Xrotation Yrotation
            End Site
            {
              OFFSET 1 0 0
            }
          }
        }
      }
      JOINT rCollar
      {
        OFFSET -2.68224 19.2634 -4.8768
        CHANNELS 3 Zrotation Xrotation Yrotation
        JOINT rShldr
        {
          OFFSET -8.77824 -1.95073 1.46304
          CHANNELS 3 Zrotation Xrotation Yrotation
          JOINT rForeArm
          {
            OFFSET -28.1742 -1.7115 0.48768
            CHANNELS 3 Zrotation Xrotation Yrotation
            JOINT rHand
            {
              OFFSET -22.5879 0.773209 7.07136
              CHANNELS 3 Zrotation Xrotation Yrotation
              JOINT rThumb1
              {
                OFFSET -1.2192 -0.487915 3.41376
                CHANNELS 3 Zrotation Xrotation Yrotation
                JOINT rThumb2
                {
                  OFFSET -3.37035 -0.52449 3.41376
                  CHANNELS 3 Zrotation Xrotation Yrotation
                  End Site
                  {
                    OFFSET -1.78271 -1.18214 1.43049
                  }
                }
              }
              JOINT rIndex1
              {
                OFFSET -7.75947 0.938293 5.60832
                CHANNELS 3 Zrotation Xrotation Yrotation
                JOINT rIndex2
                {
                  OFFSET -2.54057 -0.884171 1.56538
                  CHANNELS 3 Zrotation Xrotation Yrotation
                  End Site
                  {
                    OFFSET -1.62519 -0.234802 1.16502
                  }
                }
              }
              JOINT rMid1
              {
                OFFSET -8.24714 1.18213 3.41376
                CHANNELS 3 Zrotation Xrotation Yrotation
                JOINT rMid2
                {
                  OFFSET -3.10165 -0.590103 1.0647
                  CHANNELS 3 Zrotation Xrotation Yrotation
                  End Site
                  {
                    OFFSET -2.48547 -0.328903 0.83742
                  }
                }
              }
              JOINT rRing1
              {
                OFFSET -8.82822 0.546677 1.51678
                CHANNELS 3 Zrotation Xrotation Yrotation
                JOINT rRing2
                {
                  OFFSET -2.60934 -0.819778 -0.0198488
                  CHANNELS 3 Zrotation Xrotation Yrotation
                  End Site
                  {
                    OFFSET -2.33842 -0.294052 0.168128
                  }
                }
              }
              JOINT rPinky1
              {
                OFFSET -8.27202 -0.0477905 -0.4584
                CHANNELS 3 Zrotation Xrotation Yrotation
                JOINT rPinky2
                {
                  OFFSET -1.82734 -0.647385 -0.700984
                  CHANNELS 3 Zrotation Xrotation Yrotation
                  End Site
                  {
                    OFFSET -1.69225 -0.51767 -0.607171
                  }
                }
              }
            }
          }
        }
      }
      JOINT lCollar
      {
        OFFSET 2.68224 19.2634 -4.8768
        CHANNELS 3 Zrotation Xrotation Yrotation
        JOINT lShldr
        {
          OFFSET 8.77824 -1.95073 1.46304
          CHANNELS 3 Zrotation Xrotation Yrotation
          JOINT lForeArm
          {
            OFFSET 28.1742 -1.7115 0.48768
            CHANNELS 3 Zrotation Xrotation Yrotation
            JOINT lHand
            {
              OFFSET 22.5879 0.773209 7.07136
              CHANNELS 3 Zrotation Xrotation Yrotation
              JOINT lThumb1
              {
                OFFSET 1.2192 -0.487915 3.41376
                CHANNELS 3 Zrotation Xrotation Yrotation
                JOINT lThumb2
                {
                  OFFSET 3.37035 -0.52449 3.41376
                  CHANNELS 3 Zrotation Xrotation Yrotation
                  End Site
                  {
                    OFFSET 1.78271 -1.18214 1.43049
                  }
                }
              }
              JOINT lIndex1
              {
                OFFSET 7.75947 0.938293 5.60832
                CHANNELS 3 Zrotation Xrotation Yrotation
                JOINT lIndex2
                {
                  OFFSET 2.54057 -0.884171 1.56538
                  CHANNELS 3 Zrotation Xrotation Yrotation
                  End Site
                  {
                    OFFSET 1.62519 -0.234802 1.16502
                  }
                }
              }
              JOINT lMid1
              {
                OFFSET 8.24714 1.18213 3.41376
                CHANNELS 3 Zrotation Xrotation Yrotation
                JOINT lMid2
                {
                  OFFSET 3.10165 -0.590103 1.0647
                  CHANNELS 3 Zrotation Xrotation Yrotation
                  End Site
                  {
                    OFFSET 2.48547 -0.328903 0.83742
                  }
                }
              }
              JOINT lRing1
              {
                OFFSET 8.82822 0.546677 1.51678
                CHANNELS 3 Zrotation Xrotation Yrotation
                JOINT lRing2
                {
                  OFFSET 2.60934 -0.819778 -0.0198488
                  CHANNELS 3 Zrotation Xrotation Yrotation
                  End Site
                  {
                    OFFSET 2.33842 -0.294052 0.168128
                  }
                }
              }
              JOINT lPinky1
              {
                OFFSET 8.27202 -0.0477905 -0.4584
                CHANNELS 3 Zrotation Xrotation Yrotation
                JOINT lPinky2
                {
                  OFFSET 1.82734 -0.647385 -0.700984
                  CHANNELS 3 Zrotation Xrotation Yrotation
                  End Site
                  {
                    OFFSET 1.69225 -0.51767 -0.607171
                  }
                }
              }
            }
          }
        }
      }
    }
  }
  JOINT rButtock
  {
    OFFSET -8.77824 4.35084 1.2192
    CHANNELS 3 Zrotation Xrotation Yrotation
    JOINT rThigh
    {
      OFFSET 0 -1.70687 -2.19456
      CHANNELS 3 Zrotation Xrotation Yrotation
      JOINT rShin
      {
        OFFSET 0 -36.8199 0.73152
        CHANNELS 3 Zrotation Xrotation Yrotation
        JOINT rFoot
        {
          OFFSET 0.73152 -45.1104 -5.12064
          CHANNELS 3 Zrotation Xrotation Yrotation
          End Site
          {
            OFFSET -1.1221 -3.69964 12.103
          }
        }
      }
    }
  }
  JOINT lButtock
  {
    OFFSET 8.77824 4.35084 1.2192
    CHANNELS 3 Zrotation Xrotation Yrotation
    JOINT lThigh
    {
      OFFSET 0 -1.70687 -2.19456
      CHANNELS 3 Zrotation Xrotation Yrotation
      JOINT lShin
      {
        OFFSET 0 -36.8199 0.73152
        CHANNELS 3 Zrotation Xrotation Yrotation
        JOINT lFoot
        {
          OFFSET -0.73152 -45.1104 -5.12064
          CHANNELS 3 Zrotation Xrotation Yrotation
          End Site
          {
            OFFSET 1.1221 -3.69964 12.103
          }
        }
      }
    }
  }
}
MOTION
Frames:	7
Frame Time:	0.00833333
4.70421 83.8993 -161.308 2.45817 2.98565 1.18539 -5.82196 5.29563 2.30809 2.86592 -4.77375 0.578223 -4.14762 -6.04292 -2.44761 1.74065 -9.44547 -3.15544 -0 0 0 -0 0 0 9.31757e-014 7.55265e-015 1.28216e-014 73.0024 0.0586632 5.09259 -8.62448 -3.34635 15.246 -0.171242 -11.7117 -1.66953 -1.11824e-009 4.28255e-010 -2.66715e-010 -1.93009e-009 7.35516e-010 -4.70696e-010 -1.11823e-009 4.28252e-010 -2.66725e-010 7.73091 5.47488 0.417314 -1.11824e-009 4.28254e-010 -2.66715e-010 2.90554 0.965183 0.102902 -1.11823e-009 4.28255e-010 -2.66713e-010 10.2786 0.731801 0.0259123 -1.11824e-009 4.28258e-010 -2.66702e-010 2.22167 -0.733487 -0.20892 9.30917e-014 7.55459e-015 1.26228e-014 -78.8076 22.2783 7.96652 14.5358 -7.39495 -26.6384 0.0140959 3.38767 -0.476667 -8.98087e-010 -4.87652e-010 -1.21189e-010 -1.55194e-009 -8.4306e-010 -2.04747e-010 -8.98089e-010 -4.87649e-010 -1.21182e-010 -7.73091 5.47488 -0.417314 -8.98085e-010 -4.8765e-010 -1.21182e-010 -2.90554 0.965183 -0.102902 -8.98092e-010 -4.87649e-010 -1.21183e-010 -10.2786 0.731801 -0.0259123 -8.9809e-010 -4.87647e-010 -1.21182e-010 -2.22167 -0.733487 0.20892 -2.03217e-016 0 -3.88251e-019 -6.10931 -13.283 -4.94687 -1.16614 61.2179 1.54356 -1.91243 -1.00703 -12.3304 2.03217e-016 0 3.88251e-019 -5.13499 -19.0399 3.15933 0.0814119 19.411 0.130391 -1.11537 -8.4216 -7.81617 
4.8431 83.9166 -160.735 2.57003 2.81189 1.60802 -5.99213 5.36797 1.9041 2.94563 -4.64301 0.456762 -4.17005 -6.1186 -2.44541 1.77328 -9.20653 -3.13712 -0 0 0 -0 0 0 7.32651e-014 -2.32496e-014 -1.11502e-014 72.8676 0.921056 5.24739 -8.86962 -3.48126 15.699 -0.200882 -12.6173 -1.80301 -7.02637e-010 -7.67011e-011 -9.67303e-011 -1.21131e-009 -1.38421e-010 -1.74818e-010 -7.02631e-010 -7.67046e-011 -9.67424e-011 7.73091 5.47488 0.417314 -7.02639e-010 -7.67024e-011 -9.67307e-011 2.90554 0.965183 0.102902 -7.02634e-010 -7.67013e-011 -9.67304e-011 10.2786 0.731801 0.0259123 -7.02643e-010 -7.66986e-011 -9.67218e-011 2.22167 -0.733487 -0.20892 7.31695e-014 -2.3248e-014 -1.12962e-014 -78.3636 22.2573 7.24263 14.5605 -7.41543 -26.6893 0.0144452 3.42913 -0.482515 -5.07621e-010 -3.1316e-010 -2.83096e-010 -8.77819e-010 -5.41508e-010 -4.86594e-010 -5.07624e-010 -3.13158e-010 -2.83088e-010 -7.73091 5.47488 -0.417314 -5.0762e-010 -3.13159e-010 -2.83091e-010 -2.90554 0.965183 -0.102902 -5.07627e-010 -3.13158e-010 -2.83091e-010 -10.2786 0.731801 -0.0259123 -5.07625e-010 -3.13156e-010 -2.83089e-010 -2.22167 -0.733487 0.20892 -2.03217e-016 0 -3.88251e-019 -6.37887 -14.2409 -5.28789 -1.25615 62.4352 1.63587 -1.9873 -1.26892 -12.3331 2.03217e-016 0 3.88251e-019 -5.45297 -18.4879 2.96622 0.0788581 19.4451 0.12797 -1.12743 -8.72243 -7.74402 
5.02995 83.9259 -160.131 2.65278 2.64883 2.0557 -6.11968 5.42901 1.50577 3.01751 -4.48034 0.337298 -4.15152 -6.26537 -2.45283 1.70714 -8.87245 -3.15854 -0 0 0 -0 0 0 3.84838e-014 -2.26871e-014 -4.6146e-014 72.7385 1.67384 5.43396 -9.08776 -3.60468 16.1019 -0.22546 -13.3703 -1.91442 -3.03728e-010 -4.97384e-010 -2.84903e-010 -5.20015e-010 -8.67163e-010 -4.96809e-010 -3.03714e-010 -4.97387e-010 -2.84918e-010 7.73091 5.47488 0.417314 -3.03729e-010 -4.97385e-010 -2.84903e-010 2.90554 0.965183 0.102902 -3.03725e-010 -4.97384e-010 -2.84907e-010 10.2786 0.731801 0.0259123 -3.03732e-010 -4.97382e-010 -2.84901e-010 2.22167 -0.733487 -0.20892 3.83863e-014 -2.26863e-014 -4.62143e-014 -77.8814 22.2108 6.41648 14.5558 -7.4115 -26.6798 0.0156161 3.56886 -0.502225 -2.28967e-011 1.54338e-010 -2.30546e-010 -3.9823e-011 2.67114e-010 -3.98057e-010 -2.28995e-011 1.54339e-010 -2.30537e-010 -7.73091 5.47488 -0.417314 -2.28952e-011 1.54339e-010 -2.30545e-010 -2.90554 0.965183 -0.102902 -2.29049e-011 1.5434e-010 -2.30544e-010 -10.2786 0.731801 -0.0259123 -2.29004e-011 1.54342e-010 -2.30542e-010 -2.22167 -0.733487 0.20892 -2.03217e-016 0 -3.88251e-019 -6.60974 -15.1933 -5.61156 -1.34329 63.5157 1.72394 -2.00059 -1.35943 -12.1396 2.03217e-016 0 3.88251e-019 -5.7547 -17.9947 2.70457 0.0766903 19.5559 0.119775 -1.11642 -9.08408 -7.52743 
5.14826 83.8762 -159.584 2.71885 2.49996 2.50909 -6.22062 5.47993 1.11289 3.0904 -4.33848 0.221379 -4.1205 -6.41877 -2.45691 1.60907 -8.50182 -3.18072 -0 0 0 -0 0 0 3.86355e-015 -9.19113e-015 -8.25939e-014 72.6214 2.28499 5.60375 -9.27811 -3.71431 16.454 -0.245186 -13.9613 -2.00226 4.02577e-012 -8.27019e-010 -5.91602e-010 1.40584e-011 -1.43873e-009 -1.02392e-009 4.04842e-012 -8.27021e-010 -5.91619e-010 7.73091 5.47488 0.417314 4.02457e-012 -8.27019e-010 -5.91602e-010 2.90554 0.965183 0.102902 4.02928e-012 -8.27018e-010 -5.91609e-010 10.2786 0.731801 0.0259123 4.0244e-012 -8.27016e-010 -5.91605e-010 2.22167 -0.733487 -0.20892 3.77128e-015 -9.19116e-015 -8.25877e-014 -77.4056 22.1674 5.5859 14.5463 -7.40367 -26.6601 0.0171976 3.7443 -0.526983 4.09986e-010 6.74767e-010 -1.27037e-010 7.08803e-010 1.16737e-009 -2.21247e-010 4.09984e-010 6.74766e-010 -1.27026e-010 -7.73091 5.47488 -0.417314 4.09988e-010 6.74767e-010 -1.27038e-010 -2.90554 0.965183 -0.102902 4.09977e-010 6.74768e-010 -1.27037e-010 -10.2786 0.731801 -0.0259123 4.09984e-010 6.7477e-010 -1.27035e-010 -2.22167 -0.733487 0.20892 -2.03217e-016 0 -3.88251e-019 -6.82315 -16.1444 -5.9173 -1.42479 64.4522 1.80622 -1.98333 -1.40962 -11.7882 2.03217e-016 0 3.88251e-019 -6.03781 -17.5463 2.42094 0.0747726 19.7239 0.107357 -1.09695 -9.46935 -7.26629 
5.28642 83.787 -158.979 2.78036 2.36882 2.94883 -6.31095 5.52191 0.725209 3.17269 -4.27015 0.110514 -4.10531 -6.51432 -2.44459 1.54493 -8.1532 -3.16479 -0 0 0 -0 0 0 -1.55636e-014 -1.1929e-015 -1.10922e-013 72.5256 2.72275 5.70805 -9.43984 -3.80783 16.7551 -0.260548 -14.3806 -2.06504 1.46158e-010 -1.05883e-009 -7.77194e-010 2.61186e-010 -1.84115e-009 -1.3434e-009 1.46185e-010 -1.05883e-009 -7.77213e-010 7.73091 5.47488 0.417314 1.46157e-010 -1.05883e-009 -7.77194e-010 2.90554 0.965183 0.102902 1.46162e-010 -1.05883e-009 -7.77203e-010 10.2786 0.731801 0.0259123 1.46158e-010 -1.05883e-009 -7.772e-010 2.22167 -0.733487 -0.20892 -1.56466e-014 -1.19348e-015 -1.10872e-013 -76.9781 22.1575 4.84794 14.5565 -7.41243 -26.6807 0.0186225 3.89288 -0.547961 6.44929e-010 1.00805e-009 -1.36064e-010 1.11482e-009 1.74383e-009 -2.38272e-010 6.44926e-010 1.00805e-009 -1.36051e-010 -7.73091 5.47488 -0.417314 6.44931e-010 1.00805e-009 -1.36067e-010 -2.90554 0.965183 -0.102902 6.44919e-010 1.00805e-009 -1.36066e-010 -10.2786 0.731801 -0.0259123 6.44928e-010 1.00805e-009 -1.36064e-010 -2.22167 -0.733487 0.20892 -2.03217e-016 0 -3.88251e-019 -7.04039 -17.0983 -6.20455 -1.49775 65.2376 1.88095 -1.96509 -1.55086 -11.3172 2.03217e-016 0 3.88251e-019 -6.30141 -17.1294 2.16149 0.0729658 19.9291 0.0922684 -1.08662 -9.84085 -7.06081 
5.40189 83.785 -158.386 2.83661 2.25929 3.3745 -6.38884 5.56019 0.327885 3.26919 -4.30523 0.00144516 -4.12753 -6.55418 -2.40481 1.55144 -7.81411 -3.07791 -0 0 0 -0 0 0 -1.03679e-014 -3.03154e-015 -1.39754e-013 72.4565 2.94335 5.73461 -9.56144 -3.87827 16.9827 -0.268698 -14.5792 -2.095 6.16825e-012 -1.24452e-009 -8.24123e-010 2.02783e-011 -2.16498e-009 -1.42625e-009 6.19395e-012 -1.24452e-009 -8.24142e-010 7.73091 5.47488 0.417314 6.16721e-012 -1.24452e-009 -8.24124e-010 2.90554 0.965183 0.102902 6.17155e-012 -1.24452e-009 -8.24132e-010 10.2786 0.731801 0.0259123 6.16804e-012 -1.24451e-009 -8.24128e-010 2.22167 -0.733487 -0.20892 -1.0433e-014 -3.03224e-015 -1.39701e-013 -76.6134 22.1803 4.2338 14.5907 -7.44118 -26.7504 0.0197686 4.01084 -0.564619 5.92388e-010 1.11331e-009 -3.82247e-010 1.02294e-009 1.92563e-009 -6.64426e-010 5.92384e-010 1.11331e-009 -3.82233e-010 -7.73091 5.47488 -0.417314 5.92389e-010 1.11331e-009 -3.82249e-010 -2.90554 0.965183 -0.102902 5.92379e-010 1.11331e-009 -3.82249e-010 -10.2786 0.731801 -0.0259123 5.92389e-010 1.11331e-009 -3.82248e-010 -2.22167 -0.733487 0.20892 -2.03217e-016 0 -3.88251e-019 -7.26276 -18.0629 -6.46997 -1.55919 65.8653 1.94555 -1.93574 -1.81623 -10.6369 2.03217e-016 0 3.88251e-019 -6.54433 -16.7489 1.94173 0.0713563 20.1809 0.0741304 -1.09451 -10.1853 -6.95042 
5.57696 83.7422 -157.835 2.88164 2.16853 3.79488 -6.44803 5.59248 -0.0740077 3.37388 -4.41033 -0.105467 -4.16736 -6.56628 -2.34703 1.58582 -7.46259 -2.9485 -0 0 0 -0 0 0 9.62651e-015 -5.06902e-015 -1.7047e-013 72.4113 2.97577 5.70853 -9.64807 -3.92937 17.1444 -0.268596 -14.5777 -2.09477 -3.44014e-010 -1.36986e-009 -8.44745e-010 -5.83978e-010 -2.38538e-009 -1.4656e-009 -3.43993e-010 -1.36986e-009 -8.44762e-010 7.73091 5.47488 0.417314 -3.44015e-010 -1.36986e-009 -8.44747e-010 2.90554 0.965183 0.102902 -3.44011e-010 -1.36986e-009 -8.44751e-010 10.2786 0.731801 0.0259123 -3.44015e-010 -1.36986e-009 -8.44746e-010 2.22167 -0.733487 -0.20892 9.58791e-015 -5.06962e-015 -1.70439e-013 -76.2864 22.2239 3.6894 14.6365 -7.47962 -26.8439 0.0209234 4.12724 -0.58106 3.47144e-010 1.11088e-009 -7.5138e-010 5.97486e-010 1.92101e-009 -1.30256e-009 3.47139e-010 1.11087e-009 -7.51364e-010 -7.73091 5.47488 -0.417314 3.47144e-010 1.11087e-009 -7.5138e-010 -2.90554 0.965183 -0.102902 3.47137e-010 1.11087e-009 -7.51382e-010 -10.2786 0.731801 -0.0259123 3.47147e-010 1.11087e-009 -7.51383e-010 -2.22167 -0.733487 0.20892 -2.03217e-016 0 -3.88251e-019 -7.47859 -19.0341 -6.71489 -1.60753 66.3407 1.99788 -1.87907 -2.13716 -9.76019 2.03217e-016 0 3.88251e-019 -6.76874 -16.4093 1.73543 0.0701348 20.485 0.0523264 -1.11091 -10.5236 -6.87758 
